<?xml version="1.0" encoding="UTF-8" standalone="no"?>
<svg
   xmlns:dc="http://purl.org/dc/elements/1.1/"
   xmlns:cc="http://creativecommons.org/ns#"
   xmlns:rdf="http://www.w3.org/1999/02/22-rdf-syntax-ns#"
   xmlns:svg="http://www.w3.org/2000/svg"
   xmlns="http://www.w3.org/2000/svg"
   xmlns:sodipodi="http://sodipodi.sourceforge.net/DTD/sodipodi-0.dtd"
   xmlns:inkscape="http://www.inkscape.org/namespaces/inkscape"
   width="210mm"
   height="297mm"
   viewBox="0 0 210 297"
   version="1.1"
   id="svg8"
   sodipodi:docname="QR-Code-Geraete_Infos.svg"
   inkscape:version="1.0.1 (3bc2e813f5, 2020-09-07)">
  <defs
     id="defs2" />
  <sodipodi:namedview
     id="base"
     pagecolor="#ffffff"
     bordercolor="#666666"
     borderopacity="1.0"
     inkscape:pageopacity="0.0"
     inkscape:pageshadow="2"
     inkscape:zoom="0.82743161"
     inkscape:cx="207.02997"
     inkscape:cy="250.6383"
     inkscape:document-units="mm"
     inkscape:current-layer="layer1"
     inkscape:document-rotation="0"
     showgrid="false"
     inkscape:window-width="1920"
     inkscape:window-height="1017"
     inkscape:window-x="-8"
     inkscape:window-y="-8"
     inkscape:window-maximized="1"
     inkscape:snap-global="false" />
  <metadata
     id="metadata5">
    <rdf:RDF>
      <cc:Work
         rdf:about="">
        <dc:format>image/svg+xml</dc:format>
        <dc:type
           rdf:resource="http://purl.org/dc/dcmitype/StillImage" />
        <dc:title></dc:title>
      </cc:Work>
    </rdf:RDF>
  </metadata>
  <g
     inkscape:label="Ebene 1"
     inkscape:groupmode="layer"
     id="layer1">
    <text
       xml:space="preserve"
       style="font-style:normal;font-variant:normal;font-weight:normal;font-stretch:normal;font-size:4.85611px;line-height:1.25;font-family:DISPLAY;-inkscape-font-specification:'DISPLAY, Normal';font-variant-ligatures:normal;font-variant-caps:normal;font-variant-numeric:normal;font-variant-east-asian:normal;writing-mode:lr-tb;fill:none;stroke:#000000;stroke-width:0.0971225;stroke-linejoin:bevel;paint-order:markers stroke fill"
       x="29.726433"
       y="40.720234"
       id="text852-0"><tspan
         sodipodi:role="line"
         id="tspan923"
         x="29.726433"
         y="40.720234">Laser-</tspan><tspan
         sodipodi:role="line"
         id="tspan925"
         x="29.726433"
         y="46.790371">cutter</tspan><tspan
         sodipodi:role="line"
         id="tspan927"
         x="29.726433"
         y="52.860508">Infos</tspan><tspan
         sodipodi:role="line"
         id="tspan929"
         x="29.726433"
         y="58.930645" /></text>
    <rect
       style="fill:none;stroke:#000000;stroke-width:0.124944;stroke-linejoin:bevel;paint-order:markers stroke fill"
       id="rect858-0"
       width="68.875061"
       height="51.971031"
       x="26.080893"
       y="18.725832"
       rx="4.0403921e-15"
       ry="6.1397751e-15" />
    <text
       xml:space="preserve"
       style="font-style:normal;font-variant:normal;font-weight:normal;font-stretch:normal;font-size:4.85611px;line-height:1.25;font-family:DISPLAY;-inkscape-font-specification:'DISPLAY, Normal';font-variant-ligatures:normal;font-variant-caps:normal;font-variant-numeric:normal;font-variant-east-asian:normal;writing-mode:lr-tb;fill:none;stroke:#000000;stroke-width:0.0971225;stroke-linejoin:bevel;paint-order:markers stroke fill"
       x="118.33674"
       y="40.720234"
       id="text852-0-2"><tspan
         sodipodi:role="line"
         id="tspan1424"
         x="118.33674"
         y="40.720234">Löt-</tspan><tspan
         sodipodi:role="line"
         id="tspan1426"
         x="118.33674"
         y="46.790371">kolben</tspan><tspan
         sodipodi:role="line"
         id="tspan1428"
         x="118.33674"
         y="52.860508">Infos</tspan><tspan
         sodipodi:role="line"
         id="tspan1430"
         x="118.33674"
         y="58.930645"></tspan></text>
    <rect
       style="fill:none;stroke:#000000;stroke-width:0.124944;stroke-linejoin:bevel;paint-order:markers stroke fill"
       id="rect858-0-3"
       width="68.875061"
       height="51.971031"
       x="114.6912"
       y="18.725832"
       rx="4.0403921e-15"
       ry="6.1397751e-15" />
    <text
       xml:space="preserve"
       style="font-style:normal;font-variant:normal;font-weight:normal;font-stretch:normal;font-size:4.85611px;line-height:1.25;font-family:DISPLAY;-inkscape-font-specification:'DISPLAY, Normal';font-variant-ligatures:normal;font-variant-caps:normal;font-variant-numeric:normal;font-variant-east-asian:normal;writing-mode:lr-tb;fill:none;stroke:#000000;stroke-width:0.0971225;stroke-linejoin:bevel;paint-order:markers stroke fill"
       x="29.726433"
       y="109.33758"
       id="text852-0-1"><tspan
         sodipodi:role="line"
         id="tspan923-8"
         x="29.726433"
         y="109.33758">Laser-</tspan><tspan
         sodipodi:role="line"
         id="tspan925-29"
         x="29.726433"
         y="115.40771">cutter</tspan><tspan
         sodipodi:role="line"
         id="tspan927-0"
         x="29.726433"
         y="121.47785">Infos</tspan><tspan
         sodipodi:role="line"
         id="tspan929-2"
         x="29.726433"
         y="127.54799" /></text>
    <rect
       style="fill:none;stroke:#000000;stroke-width:0.124944;stroke-linejoin:bevel;paint-order:markers stroke fill"
       id="rect858-0-7"
       width="68.875061"
       height="51.971031"
       x="26.080893"
       y="87.343178"
       rx="4.0403921e-15"
       ry="6.1397751e-15" />
    <text
       xml:space="preserve"
       style="font-style:normal;font-variant:normal;font-weight:normal;font-stretch:normal;font-size:4.85611px;line-height:1.25;font-family:DISPLAY;-inkscape-font-specification:'DISPLAY, Normal';font-variant-ligatures:normal;font-variant-caps:normal;font-variant-numeric:normal;font-variant-east-asian:normal;writing-mode:lr-tb;fill:none;stroke:#000000;stroke-width:0.0971225;stroke-linejoin:bevel;paint-order:markers stroke fill"
       x="118.33674"
       y="109.33758"
       id="text852-0-2-9"><tspan
         sodipodi:role="line"
         id="tspan923-6-1"
         x="118.33674"
         y="109.33758">Laser-</tspan><tspan
         sodipodi:role="line"
         id="tspan925-2-1"
         x="118.33674"
         y="115.40771">cutter</tspan><tspan
         sodipodi:role="line"
         id="tspan927-5-0"
         x="118.33674"
         y="121.47785">Infos</tspan><tspan
         sodipodi:role="line"
         id="tspan929-0-4"
         x="118.33674"
         y="127.54799" /></text>
    <rect
       style="fill:none;stroke:#000000;stroke-width:0.124944;stroke-linejoin:bevel;paint-order:markers stroke fill"
       id="rect858-0-3-1"
       width="68.875061"
       height="51.971031"
       x="114.6912"
       y="87.343178"
       rx="4.0403921e-15"
       ry="6.1397751e-15" />
    <text
       xml:space="preserve"
       style="font-style:normal;font-variant:normal;font-weight:normal;font-stretch:normal;font-size:4.85611px;line-height:1.25;font-family:DISPLAY;-inkscape-font-specification:'DISPLAY, Normal';font-variant-ligatures:normal;font-variant-caps:normal;font-variant-numeric:normal;font-variant-east-asian:normal;writing-mode:lr-tb;fill:none;stroke:#000000;stroke-width:0.0971225;stroke-linejoin:bevel;paint-order:markers stroke fill"
       x="29.726433"
       y="177.95494"
       id="text852-0-3"><tspan
         sodipodi:role="line"
         id="tspan923-1"
         x="29.726433"
         y="177.95494">Laser-</tspan><tspan
         sodipodi:role="line"
         id="tspan925-8"
         x="29.726433"
         y="184.02509">cutter</tspan><tspan
         sodipodi:role="line"
         id="tspan927-2"
         x="29.726433"
         y="190.09521">Infos</tspan><tspan
         sodipodi:role="line"
         id="tspan929-6"
         x="29.726433"
         y="196.16536" /></text>
    <rect
       style="fill:none;stroke:#000000;stroke-width:0.124944;stroke-linejoin:bevel;paint-order:markers stroke fill"
       id="rect858-0-9"
       width="68.875061"
       height="51.971031"
       x="26.080893"
       y="155.96053"
       rx="4.0403921e-15"
       ry="6.1397751e-15" />
    <text
       xml:space="preserve"
       style="font-style:normal;font-variant:normal;font-weight:normal;font-stretch:normal;font-size:4.85611px;line-height:1.25;font-family:DISPLAY;-inkscape-font-specification:'DISPLAY, Normal';font-variant-ligatures:normal;font-variant-caps:normal;font-variant-numeric:normal;font-variant-east-asian:normal;writing-mode:lr-tb;fill:none;stroke:#000000;stroke-width:0.0971225;stroke-linejoin:bevel;paint-order:markers stroke fill"
       x="118.33674"
       y="177.95494"
       id="text852-0-2-95"><tspan
         sodipodi:role="line"
         id="tspan923-6-9"
         x="118.33674"
         y="177.95494">Laser-</tspan><tspan
         sodipodi:role="line"
         id="tspan925-2-5"
         x="118.33674"
         y="184.02509">cutter</tspan><tspan
         sodipodi:role="line"
         id="tspan927-5-7"
         x="118.33674"
         y="190.09521">Infos</tspan><tspan
         sodipodi:role="line"
         id="tspan929-0-8"
         x="118.33674"
         y="196.16536" /></text>
    <rect
       style="fill:none;stroke:#000000;stroke-width:0.124944;stroke-linejoin:bevel;paint-order:markers stroke fill"
       id="rect858-0-3-10"
       width="68.875061"
       height="51.971031"
       x="114.6912"
       y="155.96053"
       rx="4.0403921e-15"
       ry="6.1397751e-15" />
    <text
       xml:space="preserve"
       style="font-style:normal;font-variant:normal;font-weight:normal;font-stretch:normal;font-size:4.85611px;line-height:1.25;font-family:DISPLAY;-inkscape-font-specification:'DISPLAY, Normal';font-variant-ligatures:normal;font-variant-caps:normal;font-variant-numeric:normal;font-variant-east-asian:normal;writing-mode:lr-tb;fill:none;stroke:#000000;stroke-width:0.0971225;stroke-linejoin:bevel;paint-order:markers stroke fill"
       x="29.726433"
       y="246.57228"
       id="text852-0-16"><tspan
         sodipodi:role="line"
         id="tspan923-5"
         x="29.726433"
         y="246.57228">Laser-</tspan><tspan
         sodipodi:role="line"
         id="tspan925-9"
         x="29.726433"
         y="252.64243">cutter</tspan><tspan
         sodipodi:role="line"
         id="tspan927-9"
         x="29.726433"
         y="258.71255">Infos</tspan><tspan
         sodipodi:role="line"
         id="tspan929-21"
         x="29.726433"
         y="264.78268" /></text>
    <rect
       style="fill:none;stroke:#000000;stroke-width:0.124944;stroke-linejoin:bevel;paint-order:markers stroke fill"
       id="rect858-0-0"
       width="68.875061"
       height="51.971031"
       x="26.080893"
       y="224.57787"
       rx="4.0403921e-15"
       ry="6.1397751e-15" />
    <text
       xml:space="preserve"
       style="font-style:normal;font-variant:normal;font-weight:normal;font-stretch:normal;font-size:4.85611px;line-height:1.25;font-family:DISPLAY;-inkscape-font-specification:'DISPLAY, Normal';font-variant-ligatures:normal;font-variant-caps:normal;font-variant-numeric:normal;font-variant-east-asian:normal;writing-mode:lr-tb;fill:none;stroke:#000000;stroke-width:0.0971225;stroke-linejoin:bevel;paint-order:markers stroke fill"
       x="118.33674"
       y="246.57228"
       id="text852-0-2-3"><tspan
         sodipodi:role="line"
         id="tspan923-6-2"
         x="118.33674"
         y="246.57228">Laser-</tspan><tspan
         sodipodi:role="line"
         id="tspan925-2-58"
         x="118.33674"
         y="252.64243">cutter</tspan><tspan
         sodipodi:role="line"
         id="tspan927-5-6"
         x="118.33674"
         y="258.71255">Infos</tspan><tspan
         sodipodi:role="line"
         id="tspan929-0-6"
         x="118.33674"
         y="264.78268" /></text>
    <rect
       style="fill:none;stroke:#000000;stroke-width:0.124944;stroke-linejoin:bevel;paint-order:markers stroke fill"
       id="rect858-0-3-102"
       width="68.875061"
       height="51.971031"
       x="114.6912"
       y="224.57787"
       rx="4.0403921e-15"
       ry="6.1397751e-15" />
    <g
       inkscape:label="QR Code: https://github.com/frankyhub/Lasercutter-Nutzung"
       transform="matrix(0.264583,0,0,0.264583,57.489993,28.558556)"
       id="g1259">
      <rect
         x="0"
         y="0"
         width="122.1"
         height="122.1"
         style="fill:#ffffff;stroke:none"
         id="rect1253" />
      <g
         style="fill:#000000;stroke:none"
         id="g1257">
        <path
           d="m 101.97,108.9 h -2.640001 c -0.182254,0 -0.33,-0.14775 -0.33,-0.33 v -2.64 c 0,-0.18226 -0.147746,-0.33 -0.33,-0.33 h -2.97 v -2.97 c 0,-0.18226 -0.147746,-0.33 -0.33,-0.33 h -2.64 c -0.182254,0 -0.33,0.14774 -0.33,0.33 v 2.64 c 0,0.18225 0.147746,0.33 0.33,0.33 h 2.97 v 2.97 c 0,0.18225 -0.147746,0.33 -0.33,0.33 h -9.24 c -0.182254,0 -0.33,-0.14775 -0.33,-0.33 v -5.94 c 0,-0.18226 -0.147746,-0.33 -0.33,-0.33 h -9.24 c -0.182254,0 -0.33,-0.14775 -0.33,-0.33 v -2.640001 c 0,-0.182254 -0.147746,-0.33 -0.33,-0.33 h -2.64 c -0.182254,0 -0.33,0.147746 -0.33,0.33 V 101.97 c 0,0.18225 -0.147746,0.33 -0.33,0.33 h -2.64 c -0.182254,0 -0.33,-0.14775 -0.33,-0.33 v -2.640001 c 0,-0.182254 -0.147746,-0.33 -0.33,-0.33 h -2.64 c -0.182254,0 -0.33,0.147746 -0.33,0.33 V 101.97 c 0,0.18225 -0.147746,0.33 -0.33,0.33 h -5.94 c -0.182254,0 -0.33,-0.14775 -0.33,-0.33 v -5.940001 c 0,-0.182254 0.147746,-0.33 0.33,-0.33 h 2.64 c 0.182254,0 0.33,-0.147746 0.33,-0.33 v -2.64 c 0,-0.182254 0.147746,-0.33 0.33,-0.33 h 5.94 c 0.182254,0 0.33,0.147746 0.33,0.33 v 2.64 c 0,0.182254 0.147746,0.33 0.33,0.33 h 2.64 c 0.182254,0 0.33,-0.147746 0.33,-0.33 v -5.94 c 0,-0.182254 -0.147746,-0.33 -0.33,-0.33 h -15.84 c -0.182254,0 -0.33,0.147746 -0.33,0.33 v 2.64 c 0,0.182254 -0.147746,0.33 -0.33,0.33 h -6.27 v -2.97 c 0,-0.182254 0.147746,-0.33 0.33,-0.33 h 2.64 c 0.182254,0 0.33,-0.147746 0.33,-0.33 v -2.97 h 2.97 c 0.182254,0 0.33,-0.147746 0.33,-0.33 v -2.64 c 0,-0.182254 0.147746,-0.33 0.33,-0.33 h 2.64 c 0.182254,0 0.33,-0.147746 0.33,-0.33 v -6.27 h 2.97 c 0.182254,0 0.33,-0.147746 0.33,-0.33 v -9.57 h 2.97 c 0.182254,0 0.33,0.147746 0.33,0.33 v 2.64 c 0,0.182254 0.147746,0.33 0.33,0.33 h 2.97 v 3.3 h -2.97 c -0.182254,0 -0.33,0.147746 -0.33,0.33 v 5.94 c 0,0.182254 0.147746,0.33 0.33,0.33 h 5.94 c 0.182254,0 0.33,0.147746 0.33,0.33 v 2.97 h -6.27 c -0.182254,0 -0.33,0.147746 -0.33,0.33 v 2.64 c 0,0.182254 0.147746,0.33 0.33,0.33 h 5.94 c 0.182254,0 0.33,-0.147746 0.33,-0.33 v -2.97 h 3.3 v 2.97 c 0,0.182254 0.147746,0.33 0.33,0.33 h 2.64 c 0.182254,0 0.33,-0.147746 0.33,-0.33 v -2.64 c 0,-0.182254 -0.147746,-0.33 -0.33,-0.33 h -2.97 v -2.97 c 0,-0.182254 0.147746,-0.33 0.33,-0.33 h 2.64 c 0.182254,0 0.33,-0.147746 0.33,-0.33 v -2.97 h 2.97 c 0.182254,0 0.33,0.147746 0.33,0.33 v 2.64 c 0,0.182254 0.147746,0.33 0.33,0.33 h 2.64 c 0.182254,0 0.33,-0.147746 0.33,-0.33 v -2.64 c 0,-0.182254 0.147746,-0.33 0.33,-0.33 h 2.64 c 0.182254,0 0.33,0.147746 0.33,0.33 v 2.64 c 0,0.182254 0.147746,0.33 0.33,0.33 h 5.94 c 0.182254,0 0.33,0.147746 0.33,0.33 v 2.64 c 0,0.182254 0.147746,0.33 0.33,0.33 h 2.97 v 2.97 c 0,0.182254 0.147746,0.33 0.33,0.33 H 101.97 c 0.18225,0 0.33,0.147746 0.33,0.33 v 2.64 c 0,0.182254 -0.14775,0.33 -0.33,0.33 h -5.940001 c -0.182254,0 -0.33,0.147746 -0.33,0.33 v 2.64 c 0,0.182254 0.147746,0.33 0.33,0.33 h 2.64 c 0.182254,0 0.33,0.147746 0.33,0.33 v 2.64 c 0,0.182254 0.147746,0.33 0.33,0.33 H 101.97 c 0.18225,0 0.33,-0.147746 0.33,-0.33 v -2.64 c 0,-0.182254 0.14774,-0.33 0.33,-0.33 h 5.94 c 0.18225,0 0.33,0.147746 0.33,0.33 v 5.94 c 0,0.182254 -0.14775,0.33 -0.33,0.33 h -2.64 c -0.18226,0 -0.33,0.147746 -0.33,0.33 V 102.3 h -2.97 c -0.18226,0 -0.33,0.14774 -0.33,0.33 v 5.94 c 0,0.18225 -0.14775,0.33 -0.33,0.33 z m -23.100001,0 h -2.64 c -0.182254,0 -0.33,-0.14775 -0.33,-0.33 v -2.64 c 0,-0.18226 0.147746,-0.33 0.33,-0.33 h 2.64 c 0.182254,0 0.33,0.14774 0.33,0.33 v 2.64 c 0,0.18225 -0.147746,0.33 -0.33,0.33 z m -16.5,0 h -5.94 c -0.182254,0 -0.33,-0.14775 -0.33,-0.33 v -2.64 c 0,-0.18226 0.147746,-0.33 0.33,-0.33 h 5.94 c 0.182254,0 0.33,0.14774 0.33,0.33 v 2.64 c 0,0.18225 -0.147746,0.33 -0.33,0.33 z m -19.8,0 h -2.64 c -0.182254,0 -0.33,-0.14775 -0.33,-0.33 v -5.94 c 0,-0.18226 0.147746,-0.33 0.33,-0.33 h 2.64 c 0.182254,0 0.33,-0.14775 0.33,-0.33 v -9.240001 c 0,-0.182254 -0.147746,-0.33 -0.33,-0.33 h -2.64 c -0.182254,0 -0.33,-0.147746 -0.33,-0.33 v -9.24 c 0,-0.182254 -0.147746,-0.33 -0.33,-0.33 H 33.33 c -0.182254,0 -0.33,-0.147746 -0.33,-0.33 v -2.64 c 0,-0.182254 0.147746,-0.33 0.33,-0.33 h 2.639999 c 0.182254,0 0.33,-0.147746 0.33,-0.33 v -2.64 c 0,-0.182254 -0.147746,-0.33 -0.33,-0.33 H 33.33 c -0.182254,0 -0.33,-0.147746 -0.33,-0.33 v -2.97 h 6.599999 v 6.27 c 0,0.182254 0.147746,0.33 0.33,0.33 h 2.64 c 0.182254,0 0.33,-0.147746 0.33,-0.33 v -5.94 c 0,-0.182254 -0.147746,-0.33 -0.33,-0.33 h -2.97 v -2.97 c 0,-0.182254 -0.147746,-0.33 -0.33,-0.33 H 33.33 c -0.182254,0 -0.33,0.147746 -0.33,0.33 v 2.97 h -9.57 c -0.182254,0 -0.33,0.147746 -0.33,0.33 v 2.64 c 0,0.182254 -0.147746,0.33 -0.33,0.33 h -5.94 c -0.182254,0 -0.33,0.147746 -0.33,0.33 v 5.94 c 0,0.182254 -0.147746,0.33 -0.33,0.33 h -2.64 c -0.182254,0 -0.33,-0.147746 -0.33,-0.33 v -12.54 c 0,-0.182254 0.147746,-0.33 0.33,-0.33 h 2.64 c 0.182254,0 0.33,-0.147746 0.33,-0.33 v -2.97 h 2.97 c 0.182254,0 0.33,-0.147746 0.33,-0.33 v -2.64 c 0,-0.182254 0.147746,-0.33 0.33,-0.33 h 2.64 c 0.182254,0 0.33,0.147746 0.33,0.33 v 5.94 c 0,0.182254 0.147746,0.33 0.33,0.33 h 5.94 c 0.182254,0 0.33,-0.147746 0.33,-0.33 v -2.64 c 0,-0.182254 -0.147746,-0.33 -0.33,-0.33 h -2.64 c -0.182254,0 -0.33,-0.147746 -0.33,-0.33 v -2.64 c 0,-0.182254 0.147746,-0.33 0.33,-0.33 H 33 v 2.97 c 0,0.182254 0.147746,0.33 0.33,0.33 h 2.639999 c 0.182254,0 0.33,-0.147746 0.33,-0.33 v -2.97 h 2.97 c 0.182254,0 0.33,-0.147746 0.33,-0.33 v -2.97 h 2.97 c 0.182254,0 0.33,-0.147746 0.33,-0.33 v -2.64 c 0,-0.182254 -0.147746,-0.33 -0.33,-0.33 h -2.97 v -3.3 h 2.97 c 0.182254,0 0.33,-0.147746 0.33,-0.33 v -2.97 h 3.3 v 13.2 h -2.97 c -0.182254,0 -0.33,0.147746 -0.33,0.33 v 2.64 c 0,0.182254 0.147746,0.33 0.33,0.33 h 2.64 c 0.182254,0 0.33,-0.147746 0.33,-0.33 v -2.97 h 6.6 v 2.97 c 0,0.182254 0.147746,0.33 0.33,0.33 h 6.27 v 9.9 h -2.97 c -0.182254,0 -0.33,-0.147746 -0.33,-0.33 v -5.94 c 0,-0.182254 -0.147746,-0.33 -0.33,-0.33 h -2.64 c -0.182254,0 -0.33,0.147746 -0.33,0.33 v 5.94 c 0,0.182254 -0.147746,0.33 -0.33,0.33 h -5.94 c -0.182254,0 -0.33,0.147746 -0.33,0.33 v 2.64 c 0,0.182254 0.147746,0.33 0.33,0.33 h 2.64 c 0.182254,0 0.33,0.147746 0.33,0.33 v 2.97 h -6.27 c -0.182254,0 -0.33,0.147746 -0.33,0.33 v 2.64 c 0,0.182254 0.147746,0.33 0.33,0.33 h 2.64 c 0.182254,0 0.33,0.147746 0.33,0.33 v 5.94 c 0,0.182254 0.147746,0.33 0.33,0.33 h 2.97 v 3.3 h -2.97 c -0.182254,0 -0.33,0.147746 -0.33,0.33 V 105.27 c 0,0.18225 -0.147746,0.33 -0.33,0.33 h -2.64 c -0.182254,0 -0.33,0.14774 -0.33,0.33 v 2.64 c 0,0.18225 -0.147746,0.33 -0.33,0.33 z m -6.6,0 H 13.53 c -0.182254,0 -0.33,-0.14775 -0.33,-0.33 V 86.129999 c 0,-0.182254 0.147746,-0.33 0.33,-0.33 h 22.439999 c 0.182254,0 0.33,0.147746 0.33,0.33 V 108.57 c 0,0.18225 -0.147746,0.33 -0.33,0.33 z M 108.57,105.6 h -2.64 c -0.18226,0 -0.33,-0.14775 -0.33,-0.33 v -2.97 h 2.97 c 0.18225,0 0.33,0.14774 0.33,0.33 v 2.64 c 0,0.18225 -0.14775,0.33 -0.33,0.33 z M 33,105.27 V 89.429999 c 0,-0.182254 -0.147747,-0.33 -0.33,-0.33 H 16.83 c -0.182254,0 -0.33,0.147746 -0.33,0.33 V 105.27 c 0,0.18225 0.147746,0.33 0.33,0.33 h 15.84 c 0.182253,0 0.33,-0.14775 0.33,-0.33 z m 22.769999,-2.97 h -2.64 c -0.182254,0 -0.33,-0.14775 -0.33,-0.33 v -2.970001 h 2.97 c 0.182254,0 0.33,0.147746 0.33,0.33 V 101.97 c 0,0.18225 -0.147746,0.33 -0.33,0.33 z M 29.37,102.3 h -9.24 c -0.182254,0 -0.33,-0.14775 -0.33,-0.33 v -9.240001 c 0,-0.182254 0.147746,-0.33 0.33,-0.33 h 9.24 c 0.182254,0 0.33,0.147746 0.33,0.33 V 101.97 c 0,0.18225 -0.147746,0.33 -0.33,0.33 z m 66.329999,-3.630001 v -2.64 c 0,-0.182254 -0.147746,-0.33 -0.33,-0.33 h -9.24 c -0.182254,0 -0.33,0.147746 -0.33,0.33 v 2.64 c 0,0.182254 0.147746,0.33 0.33,0.33 h 9.24 c 0.182254,0 0.33,-0.147746 0.33,-0.33 z m -43.23,0.33 h -2.64 c -0.182254,0 -0.33,-0.147746 -0.33,-0.33 v -2.97 h 2.97 c 0.182254,0 0.33,0.147746 0.33,0.33 v 2.97 z m 39.93,-6.93 v -9.24 c 0,-0.182254 -0.147746,-0.33 -0.33,-0.33 h -9.24 c -0.182254,0 -0.33,0.147746 -0.33,0.33 v 9.24 c 0,0.182254 0.147746,0.33 0.33,0.33 h 9.24 c 0.182254,0 0.33,-0.147746 0.33,-0.33 z m -3.63,-2.97 h -2.64 c -0.182254,0 -0.33,-0.147746 -0.33,-0.33 v -2.64 c 0,-0.182254 0.147746,-0.33 0.33,-0.33 h 2.64 c 0.182254,0 0.33,0.147746 0.33,0.33 v 2.64 c 0,0.182254 -0.147746,0.33 -0.33,0.33 z m -36.3,-3.3 h -2.64 c -0.182254,0 -0.33,-0.147746 -0.33,-0.33 v -2.97 h 2.97 c 0.182254,0 0.33,0.147746 0.33,0.33 v 2.97 z m 56.100001,-3.3 h -9.570001 v -2.97 c 0,-0.182254 0.147746,-0.33 0.33,-0.33 H 108.57 c 0.18225,0 0.33,0.147746 0.33,0.33 v 2.64 c 0,0.182254 -0.14775,0.33 -0.33,0.33 z m -79.2,0 h -9.24 c -0.182254,0 -0.33,-0.147746 -0.33,-0.33 v -2.64 c 0,-0.182254 0.147746,-0.33 0.33,-0.33 h 5.94 c 0.182254,0 0.33,-0.147746 0.33,-0.33 v -2.64 c 0,-0.182254 0.147746,-0.33 0.33,-0.33 h 2.64 c 0.182254,0 0.33,0.147746 0.33,0.33 v 5.94 c 0,0.182254 -0.147746,0.33 -0.33,0.33 z m 79.2,-6.6 h -2.64 c -0.18226,0 -0.33,-0.147746 -0.33,-0.33 v -2.64 c 0,-0.182254 -0.14775,-0.33 -0.33,-0.33 h -6.270001 v -2.97 c 0,-0.182254 -0.147746,-0.33 -0.33,-0.33 h -2.97 v -3.3 h 2.97 c 0.182254,0 0.33,-0.147746 0.33,-0.33 v -2.64 c 0,-0.182254 -0.147746,-0.33 -0.33,-0.33 h -2.64 c -0.182254,0 -0.33,0.147746 -0.33,0.33 v 2.97 h -2.97 c -0.182254,0 -0.33,0.147746 -0.33,0.33 v 2.64 c 0,0.182254 0.147746,0.33 0.33,0.33 h 2.97 v 2.97 c 0,0.182254 0.147746,0.33 0.33,0.33 h 2.97 v 2.97 c 0,0.182254 -0.147746,0.33 -0.33,0.33 h -5.94 c -0.182254,0 -0.33,-0.147746 -0.33,-0.33 v -2.64 c 0,-0.182254 -0.147746,-0.33 -0.33,-0.33 h -5.94 c -0.182254,0 -0.33,-0.147746 -0.33,-0.33 v -2.97 h 2.97 c 0.182254,0 0.33,-0.147746 0.33,-0.33 v -5.94 c 0,-0.182254 0.147746,-0.33 0.33,-0.33 h 2.64 c 0.182254,0 0.33,-0.147746 0.33,-0.33 v -2.64 c 0,-0.182254 -0.147746,-0.33 -0.33,-0.33 h -6.27 v -6.6 h 6.27 c 0.182254,0 0.33,0.147746 0.33,0.33 v 2.64 c 0,0.182254 0.147746,0.33 0.33,0.33 h 2.64 c 0.182254,0 0.33,0.147746 0.33,0.33 v 2.64 c 0,0.182254 0.147746,0.33 0.33,0.33 H 102.3 v 9.57 c 0,0.182254 0.14774,0.33 0.33,0.33 h 5.94 c 0.18225,0 0.33,0.147746 0.33,0.33 v 5.94 c 0,0.182254 -0.14775,0.33 -0.33,0.33 z m -29.700001,0 h -2.64 c -0.182254,0 -0.33,-0.147746 -0.33,-0.33 v -9.24 c 0,-0.182254 -0.147746,-0.33 -0.33,-0.33 h -2.97 v -6.27 c 0,-0.182254 -0.147746,-0.33 -0.33,-0.33 h -2.64 c -0.182254,0 -0.33,0.147746 -0.33,0.33 v 2.64 c 0,0.182254 -0.147746,0.33 -0.33,0.33 h -6.27 v -2.97 c 0,-0.182254 -0.147746,-0.33 -0.33,-0.33 h -2.97 v -2.97 c 0,-0.182254 0.147746,-0.33 0.33,-0.33 h 2.64 c 0.182254,0 0.33,-0.147746 0.33,-0.33 v -2.64 c 0,-0.182254 -0.147746,-0.33 -0.33,-0.33 h -2.64 c -0.182254,0 -0.33,-0.147746 -0.33,-0.33 v -9.24 c 0,-0.182254 -0.147746,-0.33 -0.33,-0.33 h -2.64 c -0.182254,0 -0.33,0.147746 -0.33,0.33 v 2.64 c 0,0.182254 -0.147746,0.33 -0.33,0.33 h -2.64 c -0.182254,0 -0.33,-0.147746 -0.33,-0.33 v -2.64 c 0,-0.182254 -0.147746,-0.33 -0.33,-0.33 h -2.64 c -0.182254,0 -0.33,-0.147746 -0.33,-0.33 v -2.64 c 0,-0.182254 -0.147746,-0.33 -0.33,-0.33 h -2.97 V 33.33 c 0,-0.182254 0.147746,-0.33 0.33,-0.33 h 2.97 v 2.969999 c 0,0.182254 0.147746,0.33 0.33,0.33 h 2.97 v 2.97 c 0,0.182254 0.147746,0.33 0.33,0.33 h 9.24 c 0.182254,0 0.33,-0.147746 0.33,-0.33 v -2.97 h 3.3 v 19.47 c 0,0.182254 0.147746,0.33 0.33,0.33 h 9.24 c 0.182254,0 0.33,-0.147746 0.33,-0.33 v -6.27 h 9.57 c 0.182254,0 0.33,0.147746 0.33,0.33 v 2.97 h -2.97 c -0.182254,0 -0.33,0.147746 -0.33,0.33 v 5.94 c 0,0.182254 0.147746,0.33 0.33,0.33 h 2.97 v 2.97 c 0,0.182254 -0.147746,0.33 -0.33,0.33 h -6.27 v -2.97 c 0,-0.182254 -0.147746,-0.33 -0.33,-0.33 h -2.64 c -0.182254,0 -0.33,0.147746 -0.33,0.33 v 2.64 c 0,0.182254 0.147746,0.33 0.33,0.33 h 2.97 v 13.2 z m -6.6,0 h -2.64 c -0.182254,0 -0.33,-0.147746 -0.33,-0.33 v -2.97 h 2.97 c 0.182254,0 0.33,0.147746 0.33,0.33 v 2.64 c 0,0.182254 -0.147746,0.33 -0.33,0.33 z m -22.77,-3.63 v -2.64 c 0,-0.182254 -0.147746,-0.33 -0.33,-0.33 h -2.64 c -0.182254,0 -0.33,0.147746 -0.33,0.33 v 2.64 c 0,0.182254 0.147746,0.33 0.33,0.33 h 2.64 c 0.182254,0 0.33,-0.147746 0.33,-0.33 z m 35.97,-2.97 h -2.64 c -0.182254,0 -0.33,-0.147746 -0.33,-0.33 v -2.64 c 0,-0.182254 0.147746,-0.33 0.33,-0.33 h 2.64 c 0.182254,0 0.33,0.147746 0.33,0.33 v 2.97 z m -13.2,0 h -2.97 v -2.97 c 0,-0.182254 0.147746,-0.33 0.33,-0.33 h 2.97 v 2.97 c 0,0.182254 -0.147746,0.33 -0.33,0.33 z m 36.300001,-3.3 h -2.64 c -0.18226,0 -0.33,-0.147746 -0.33,-0.33 v -2.64 c 0,-0.182254 0.14774,-0.33 0.33,-0.33 h 2.64 c 0.18225,0 0.33,0.147746 0.33,0.33 v 2.64 c 0,0.182254 -0.14775,0.33 -0.33,0.33 z m -46.200001,0 h -2.97 v -3.3 h 3.3 v 3.3 z m -46.199999,0 h -2.64 c -0.182254,0 -0.33,-0.147746 -0.33,-0.33 v -2.64 c 0,-0.182254 0.147746,-0.33 0.33,-0.33 h 2.64 c 0.182254,0 0.33,0.147746 0.33,0.33 v 2.97 z m 42.899999,-3.3 h -6.27 v -3.3 h 6.6 v 3.3 z m -23.1,0 H 33 v -2.97 c 0,-0.182254 0.147746,-0.33 0.33,-0.33 h 2.969999 v 3.3 z m 72.600001,-3.3 h -6.27 v -2.97 c 0,-0.182254 0.14774,-0.33 0.33,-0.33 h 2.64 c 0.18225,0 0.33,-0.147746 0.33,-0.33 v -2.64 c 0,-0.182254 0.14774,-0.33 0.33,-0.33 h 2.64 c 0.18225,0 0.33,0.147746 0.33,0.33 v 5.94 c 0,0.182254 -0.14775,0.33 -0.33,0.33 z m -56.100001,0 h -2.64 c -0.182254,0 -0.33,-0.147746 -0.33,-0.33 v -9.57 h 2.97 c 0.182254,0 0.33,0.147746 0.33,0.33 v 2.64 c 0,0.182254 0.147746,0.33 0.33,0.33 h 2.64 c 0.182254,0 0.33,0.147746 0.33,0.33 v 2.64 c 0,0.182254 -0.147746,0.33 -0.33,0.33 h -2.64 c -0.182254,0 -0.33,0.147746 -0.33,0.33 v 2.97 z m -13.2,0 h -2.97 v -3.3 h 3.3 v 3.3 z m -13.199999,0 h -5.94 c -0.182254,0 -0.33,-0.147746 -0.33,-0.33 v -2.64 c 0,-0.182254 0.147746,-0.33 0.33,-0.33 h 2.64 c 0.182254,0 0.33,-0.147746 0.33,-0.33 v -2.97 h 3.3 v 6.27 c 0,0.182254 -0.147746,0.33 -0.33,0.33 z m -9.9,0 h -2.64 c -0.182254,0 -0.33,-0.147746 -0.33,-0.33 v -5.94 c 0,-0.182254 0.147746,-0.33 0.33,-0.33 h 2.97 v 6.27 c 0,0.182254 -0.147746,0.33 -0.33,0.33 z m 19.799999,-3.3 H 30.03 c -0.182254,0 -0.33,-0.147746 -0.33,-0.33 v -2.97 h 6.599999 v 3.3 z m 62.7,-3.3 h -2.64 c -0.182254,0 -0.33,-0.147746 -0.33,-0.33 v -2.97 h 2.97 c 0.182254,0 0.33,0.147746 0.33,0.33 v 2.64 c 0,0.182254 -0.147746,0.33 -0.33,0.33 z m -59.4,0 h -2.97 v -2.97 c 0,-0.182254 -0.147746,-0.33 -0.33,-0.33 H 33.33 c -0.182254,0 -0.33,-0.147746 -0.33,-0.33 v -2.97 h 2.969999 c 0.182254,0 0.33,-0.147746 0.33,-0.33 v -2.64 c 0,-0.182254 -0.147746,-0.33 -0.33,-0.33 H 33.33 c -0.182254,0 -0.33,0.147746 -0.33,0.33 v 2.97 h -6.27 c -0.182254,0 -0.33,-0.147746 -0.33,-0.33 v -2.64 c 0,-0.182254 0.147746,-0.33 0.33,-0.33 h 2.64 c 0.182254,0 0.33,-0.147746 0.33,-0.33 v -2.64 c 0,-0.182254 0.147746,-0.33 0.33,-0.33 h 9.239999 c 0.182254,0 0.33,0.147746 0.33,0.33 v 2.64 c 0,0.182254 0.147746,0.33 0.33,0.33 h 2.64 c 0.182254,0 0.33,-0.147746 0.33,-0.33 v -2.64 c 0,-0.182254 0.147746,-0.33 0.33,-0.33 h 2.97 v 6.6 h -2.97 c -0.182254,0 -0.33,0.147746 -0.33,0.33 v 2.97 h -2.97 c -0.182254,0 -0.33,0.147746 -0.33,0.33 v 2.97 z m -9.899999,0 H 26.4 v -2.97 c 0,-0.182254 0.147746,-0.33 0.33,-0.33 h 2.64 c 0.182254,0 0.33,0.147746 0.33,0.33 v 2.97 z m -6.6,0 H 16.5 v -6.27 c 0,-0.182254 0.147746,-0.33 0.33,-0.33 h 2.64 c 0.182254,0 0.33,0.147746 0.33,0.33 v 2.64 c 0,0.182254 0.147746,0.33 0.33,0.33 h 2.64 c 0.182254,0 0.33,0.147746 0.33,0.33 v 2.97 z m 72.599999,-3.3 h -2.64 c -0.182254,0 -0.33,-0.147746 -0.33,-0.33 v -2.64 c 0,-0.182254 -0.147746,-0.33 -0.33,-0.33 h -2.64 c -0.182254,0 -0.33,-0.147746 -0.33,-0.33 v -2.64 c 0,-0.182254 0.147746,-0.33 0.33,-0.33 h 2.64 c 0.182254,0 0.33,-0.147746 0.33,-0.33 v -2.64 c 0,-0.182254 0.147746,-0.33 0.33,-0.33 h 5.94 c 0.182254,0 0.33,0.147746 0.33,0.33 v 2.97 h -2.97 c -0.182254,0 -0.33,0.147746 -0.33,0.33 v 6.27 z m -19.8,0 h -2.64 c -0.182254,0 -0.33,-0.147746 -0.33,-0.33 v -2.97 h 3.3 v 3.3 z m -26.4,0 h -2.97 v -3.3 h 2.97 c 0.182254,0 0.33,0.147746 0.33,0.33 v 2.97 z m 56.100001,-3.3 h -5.940001 c -0.182254,0 -0.33,-0.147746 -0.33,-0.33 v -2.97 H 105.27 c 0.18225,0 0.33,0.147746 0.33,0.33 v 2.64 c 0,0.182254 -0.14775,0.33 -0.33,0.33 z m -19.800001,0 h -2.64 c -0.182254,0 -0.33,-0.147746 -0.33,-0.33 v -2.97 h 2.97 c 0.182254,0 0.33,0.147746 0.33,0.33 v 2.64 c 0,0.182254 -0.147746,0.33 -0.33,0.33 z m -6.6,0 h -2.97 v -2.97 c 0,-0.182254 0.147746,-0.33 0.33,-0.33 h 2.97 v 2.97 c 0,0.182254 -0.147746,0.33 -0.33,0.33 z m -6.6,0 h -2.64 c -0.182254,0 -0.33,-0.147746 -0.33,-0.33 v -5.94 c 0,-0.182254 0.147746,-0.33 0.33,-0.33 h 2.64 c 0.182254,0 0.33,0.147746 0.33,0.33 v 6.27 z m 9.9,-3.3 h -2.97 v -3.3 h 2.97 c 0.182254,0 0.33,0.147746 0.33,0.33 v 2.97 z m -62.699999,0 h -5.94 c -0.182254,0 -0.33,-0.147746 -0.33,-0.33 v -2.64 c 0,-0.182254 0.147746,-0.33 0.33,-0.33 h 5.94 c 0.182254,0 0.33,0.147746 0.33,0.33 v 2.64 c 0,0.182254 -0.147746,0.33 -0.33,0.33 z m 59.399999,-3.3 h -2.64 c -0.182254,0 -0.33,-0.147746 -0.33,-0.33 v -2.97 h 3.3 v 3.3 z m 29.700001,-3.3 H 86.129999 c -0.182254,0 -0.33,-0.147746 -0.33,-0.33 V 13.53 c 0,-0.182254 0.147746,-0.33 0.33,-0.33 H 108.57 c 0.18225,0 0.33,0.147746 0.33,0.33 v 22.439999 c 0,0.182254 -0.14775,0.33 -0.33,0.33 z m -26.400001,0 h -2.97 V 33.33 c 0,-0.182254 0.147746,-0.33 0.33,-0.33 h 2.64 c 0.182254,0 0.33,0.147746 0.33,0.33 v 2.639999 c 0,0.182254 -0.147746,0.33 -0.33,0.33 z m -6.6,0 h -2.64 c -0.182254,0 -0.33,-0.147746 -0.33,-0.33 V 33.33 c 0,-0.182254 -0.147746,-0.33 -0.33,-0.33 h -2.64 c -0.182254,0 -0.33,0.147746 -0.33,0.33 v 2.639999 c 0,0.182254 -0.147746,0.33 -0.33,0.33 h -2.97 V 26.73 c 0,-0.182254 0.147746,-0.33 0.33,-0.33 h 2.64 c 0.182254,0 0.33,-0.147746 0.33,-0.33 V 23.1 h 3.3 v 2.97 c 0,0.182254 0.147746,0.33 0.33,0.33 h 5.94 c 0.182254,0 0.33,-0.147746 0.33,-0.33 v -2.64 c 0,-0.182254 0.147746,-0.33 0.33,-0.33 h 2.64 c 0.182254,0 0.33,0.147746 0.33,0.33 v 5.94 c 0,0.182254 -0.147746,0.33 -0.33,0.33 h -5.94 c -0.182254,0 -0.33,0.147746 -0.33,0.33 v 6.269999 z m -13.2,0 h -2.64 c -0.182254,0 -0.33,-0.147746 -0.33,-0.33 V 26.4 h 2.97 c 0.182254,0 0.33,0.147746 0.33,0.33 v 9.569999 z m -6.6,0 h -2.97 V 33.33 c 0,-0.182254 -0.147746,-0.33 -0.33,-0.33 h -2.97 v -2.97 c 0,-0.182254 0.147746,-0.33 0.33,-0.33 h 5.94 c 0.182254,0 0.33,0.147746 0.33,0.33 v 5.939999 c 0,0.182254 -0.147746,0.33 -0.33,0.33 z m -13.2,0 h -2.64 c -0.182254,0 -0.33,-0.147746 -0.33,-0.33 V 33.33 c 0,-0.182254 0.147746,-0.33 0.33,-0.33 h 2.64 c 0.182254,0 0.33,0.147746 0.33,0.33 v 2.639999 c 0,0.182254 -0.147746,0.33 -0.33,0.33 z m -6.6,0 H 13.53 c -0.182254,0 -0.33,-0.147746 -0.33,-0.33 V 13.53 c 0,-0.182254 0.147746,-0.33 0.33,-0.33 h 22.439999 c 0.182254,0 0.33,0.147746 0.33,0.33 v 22.439999 c 0,0.182254 -0.147746,0.33 -0.33,0.33 z M 105.6,32.67 V 16.83 c 0,-0.182254 -0.14775,-0.33 -0.33,-0.33 H 89.429999 c -0.182254,0 -0.33,0.147746 -0.33,0.33 v 15.84 c 0,0.182253 0.147746,0.33 0.33,0.33 H 105.27 c 0.18225,0 0.33,-0.147747 0.33,-0.33 z m -72.6,0 V 16.83 C 33,16.647746 32.852253,16.5 32.67,16.5 H 16.83 c -0.182254,0 -0.33,0.147746 -0.33,0.33 v 15.84 c 0,0.182253 0.147746,0.33 0.33,0.33 H 32.67 C 32.852253,33 33,32.852253 33,32.67 Z m 68.97,-2.97 h -9.240001 c -0.182254,0 -0.33,-0.147746 -0.33,-0.33 v -9.24 c 0,-0.182254 0.147746,-0.33 0.33,-0.33 H 101.97 c 0.18225,0 0.33,0.147746 0.33,0.33 v 9.24 c 0,0.182254 -0.14775,0.33 -0.33,0.33 z m -56.100001,0 h -5.94 c -0.182254,0 -0.33,-0.147746 -0.33,-0.33 v -5.94 c 0,-0.182254 0.147746,-0.33 0.33,-0.33 h 2.64 c 0.182254,0 0.33,0.147746 0.33,0.33 v 2.64 c 0,0.182254 0.147746,0.33 0.33,0.33 h 2.64 c 0.182254,0 0.33,0.147746 0.33,0.33 v 2.64 c 0,0.182254 -0.147746,0.33 -0.33,0.33 z M 29.37,29.7 h -9.24 c -0.182254,0 -0.33,-0.147746 -0.33,-0.33 v -9.24 c 0,-0.182254 0.147746,-0.33 0.33,-0.33 h 9.24 c 0.182254,0 0.33,0.147746 0.33,0.33 v 9.24 c 0,0.182254 -0.147746,0.33 -0.33,0.33 z m 29.699999,-3.3 h -5.94 c -0.182254,0 -0.33,-0.147746 -0.33,-0.33 v -5.94 c 0,-0.182254 0.147746,-0.33 0.33,-0.33 h 2.64 c 0.182254,0 0.33,0.147746 0.33,0.33 v 2.64 c 0,0.182254 0.147746,0.33 0.33,0.33 h 2.64 c 0.182254,0 0.33,0.147746 0.33,0.33 v 2.97 z m 16.5,-3.3 h -2.97 v -3.3 h 2.97 c 0.182254,0 0.33,0.147746 0.33,0.33 v 2.64 c 0,0.182254 -0.147746,0.33 -0.33,0.33 z m -6.6,0 h -5.94 c -0.182254,0 -0.33,-0.147746 -0.33,-0.33 V 19.8 h 2.97 c 0.182254,0 0.33,-0.147746 0.33,-0.33 v -2.64 c 0,-0.182254 0.147746,-0.33 0.33,-0.33 h 6.27 v 3.3 h -2.97 c -0.182254,0 -0.33,0.147746 -0.33,0.33 v 2.97 z m 13.2,-3.3 h -2.64 c -0.182254,0 -0.33,-0.147746 -0.33,-0.33 v -2.64 c 0,-0.182254 0.147746,-0.33 0.33,-0.33 h 2.64 c 0.182254,0 0.33,0.147746 0.33,0.33 v 2.64 c 0,0.182254 -0.147746,0.33 -0.33,0.33 z m -19.8,0 h -2.64 c -0.182254,0 -0.33,-0.147746 -0.33,-0.33 V 16.5 h 2.97 c 0.182254,0 0.33,0.147746 0.33,0.33 v 2.97 z m -13.2,0 h -5.94 c -0.182254,0 -0.33,-0.147746 -0.33,-0.33 v -2.64 c 0,-0.182254 0.147746,-0.33 0.33,-0.33 h 6.27 v 2.97 c 0,0.182254 -0.147746,0.33 -0.33,0.33 z m 26.4,-3.3 h -2.97 v -2.97 c 0,-0.182254 0.147746,-0.33 0.33,-0.33 h 2.64 c 0.182254,0 0.33,0.147746 0.33,0.33 v 2.64 c 0,0.182254 -0.147746,0.33 -0.33,0.33 z m -16.5,0 h -9.57 v -2.97 c 0,-0.182254 0.147746,-0.33 0.33,-0.33 h 9.24 c 0.182254,0 0.33,0.147746 0.33,0.33 v 2.97 z"
           id="path1255" />
      </g>
    </g>
    <g
       inkscape:label="QR Code: https://github.com/frankyhub/Infos_Loetkolben/tree/master/Infos_PDF"
       transform="matrix(0.264583,0,0,0.264583,141.75267,26.983655)"
       id="g1416">
      <rect
         x="0"
         y="0"
         width="135.3"
         height="135.3"
         style="fill:#ffffff;stroke:none"
         id="rect1410" />
      <g
         style="fill:#000000;stroke:none"
         id="g1414">
        <path
           d="M 115.17,122.1 H 96.029999 c -0.182254,0 -0.33,-0.14775 -0.33,-0.33 v -2.64 c 0,-0.18226 -0.147746,-0.33 -0.33,-0.33 h -2.97 v -9.57 c 0,-0.18226 -0.147746,-0.33 -0.33,-0.33 h -6.27 v -2.97 c 0,-0.18226 -0.147746,-0.33 -0.33,-0.33 h -2.64 c -0.182254,0 -0.33,0.14774 -0.33,0.33 v 2.64 c 0,0.18225 0.147746,0.33 0.33,0.33 h 2.97 v 3.3 h -6.27 c -0.182254,0 -0.33,-0.14775 -0.33,-0.33 v -2.64 c 0,-0.18226 -0.147746,-0.33 -0.33,-0.33 h -2.64 c -0.182254,0 -0.33,-0.14775 -0.33,-0.33 v -5.94 c 0,-0.18226 -0.147746,-0.33 -0.33,-0.33 h -2.64 c -0.182254,0 -0.33,-0.14775 -0.33,-0.33 v -2.970001 h 2.97 c 0.182254,0 0.33,-0.147746 0.33,-0.33 v -2.64 c 0,-0.182254 0.147746,-0.33 0.33,-0.33 h 2.64 c 0.182254,0 0.33,0.147746 0.33,0.33 v 2.64 c 0,0.182254 0.147746,0.33 0.33,0.33 h 5.94 c 0.182254,0 0.33,-0.147746 0.33,-0.33 v -5.94 c 0,-0.182254 0.147746,-0.33 0.33,-0.33 h 2.64 c 0.182254,0 0.33,0.147746 0.33,0.33 v 2.64 c 0,0.182254 0.147746,0.33 0.33,0.33 h 2.64 c 0.182254,0 0.33,-0.147746 0.33,-0.33 v -2.64 c 0,-0.182254 0.147746,-0.33 0.33,-0.33 h 5.94 c 0.182254,0 0.33,-0.147746 0.33,-0.33 v -2.97 H 101.97 c 0.18225,0 0.33,0.147746 0.33,0.33 v 2.64 c 0,0.182254 0.14774,0.33 0.33,0.33 h 6.27 v 6.27 c 0,0.182254 0.14774,0.33 0.33,0.33 h 5.94 c 0.18225,0 0.33,0.147746 0.33,0.33 V 101.97 c 0,0.18225 0.14774,0.33 0.33,0.33 h 5.94 c 0.18225,0 0.33,0.14774 0.33,0.33 v 5.94 c 0,0.18225 -0.14775,0.33 -0.33,0.33 h -2.97 v -2.97 c 0,-0.18226 -0.14775,-0.33 -0.33,-0.33 h -2.64 c -0.18226,0 -0.33,0.14774 -0.33,0.33 v 2.64 c 0,0.18225 0.14774,0.33 0.33,0.33 h 2.97 v 6.6 h -9.57 c -0.18226,0 -0.33,-0.14775 -0.33,-0.33 v -2.64 c 0,-0.18226 0.14774,-0.33 0.33,-0.33 h 2.64 c 0.18225,0 0.33,-0.14775 0.33,-0.33 v -2.64 c 0,-0.18226 -0.14775,-0.33 -0.33,-0.33 H 96.029999 c -0.182254,0 -0.33,0.14774 -0.33,0.33 v 5.94 c 0,0.18225 0.147746,0.33 0.33,0.33 h 2.64 c 0.182254,0 0.33,-0.14775 0.33,-0.33 v -2.64 c 0,-0.18226 0.147746,-0.33 0.33,-0.33 H 101.97 c 0.18225,0 0.33,0.14774 0.33,0.33 v 5.94 c 0,0.18225 0.14774,0.33 0.33,0.33 h 12.54 c 0.18225,0 0.33,0.14774 0.33,0.33 v 2.64 c 0,0.18225 -0.14775,0.33 -0.33,0.33 z m -23.100001,0 h -2.64 c -0.182254,0 -0.33,-0.14775 -0.33,-0.33 v -2.97 h 3.3 v 2.97 c 0,0.18225 -0.147746,0.33 -0.33,0.33 z m -16.5,0 h -12.54 c -0.182254,0 -0.33,-0.14775 -0.33,-0.33 v -2.97 h 2.97 c 0.182254,0 0.33,-0.14775 0.33,-0.33 v -2.64 c 0,-0.18226 -0.147746,-0.33 -0.33,-0.33 h -2.64 c -0.182254,0 -0.33,0.14774 -0.33,0.33 v 2.97 h -3.3 v -2.97 c 0,-0.18226 -0.147746,-0.33 -0.33,-0.33 h -2.64 c -0.182254,0 -0.33,0.14774 -0.33,0.33 v 2.97 h -3.3 v -2.97 c 0,-0.18226 -0.147746,-0.33 -0.33,-0.33 h -6.27 v -2.97 c 0,-0.18226 0.147746,-0.33 0.33,-0.33 h 5.94 c 0.182254,0 0.33,-0.14775 0.33,-0.33 v -2.97 h 6.27 c 0.182254,0 0.33,0.14774 0.33,0.33 v 2.64 c 0,0.18225 0.147746,0.33 0.33,0.33 h 2.64 c 0.182254,0 0.33,-0.14775 0.33,-0.33 v -2.64 c 0,-0.18226 0.147746,-0.33 0.33,-0.33 h 2.64 c 0.182254,0 0.33,0.14774 0.33,0.33 v 2.64 c 0,0.18225 0.147746,0.33 0.33,0.33 h 2.64 c 0.182254,0 0.33,-0.14775 0.33,-0.33 v -2.64 c 0,-0.18226 0.147746,-0.33 0.33,-0.33 h 2.64 c 0.182254,0 0.33,0.14774 0.33,0.33 v 5.94 c 0,0.18225 0.147746,0.33 0.33,0.33 h 2.64 c 0.182254,0 0.33,0.14774 0.33,0.33 v 5.94 c 0,0.18225 -0.147746,0.33 -0.33,0.33 z m -16.5,0 h -2.64 c -0.182254,0 -0.33,-0.14775 -0.33,-0.33 v -2.97 h 3.3 v 2.97 c 0,0.18225 -0.147746,0.33 -0.33,0.33 z m -6.6,0 h -5.94 c -0.182254,0 -0.33,-0.14775 -0.33,-0.33 v -2.97 h 6.6 v 2.97 c 0,0.18225 -0.147746,0.33 -0.33,0.33 z m -9.9,0 h -2.64 c -0.182254,0 -0.33,-0.14775 -0.33,-0.33 v -12.54 c 0,-0.18226 0.147746,-0.33 0.33,-0.33 h 2.97 v 6.27 c 0,0.18225 0.147746,0.33 0.33,0.33 h 2.97 v 3.3 h -2.97 c -0.182254,0 -0.33,0.14774 -0.33,0.33 v 2.64 c 0,0.18225 -0.147746,0.33 -0.33,0.33 z m -6.6,0 H 13.53 c -0.182254,0 -0.33,-0.14775 -0.33,-0.33 V 99.329999 c 0,-0.182254 0.147746,-0.33 0.33,-0.33 h 22.439999 c 0.182254,0 0.33,0.147746 0.33,0.33 V 121.77 c 0,0.18225 -0.147746,0.33 -0.33,0.33 z M 121.77,118.8 h -2.64 c -0.18226,0 -0.33,-0.14775 -0.33,-0.33 v -2.97 h 2.97 c 0.18225,0 0.33,0.14774 0.33,0.33 v 2.64 c 0,0.18225 -0.14775,0.33 -0.33,0.33 z m -33.000001,0 h -2.64 c -0.182254,0 -0.33,-0.14775 -0.33,-0.33 v -6.27 h 2.97 c 0.182254,0 0.33,0.14774 0.33,0.33 v 6.27 z M 33,118.47 v -15.84 c 0,-0.18226 -0.147747,-0.33 -0.33,-0.33 H 16.83 c -0.182254,0 -0.33,0.14774 -0.33,0.33 v 15.84 c 0,0.18225 0.147746,0.33 0.33,0.33 h 15.84 c 0.182253,0 0.33,-0.14775 0.33,-0.33 z m -3.63,-2.97 h -9.24 c -0.182254,0 -0.33,-0.14775 -0.33,-0.33 v -9.24 c 0,-0.18226 0.147746,-0.33 0.33,-0.33 h 9.24 c 0.182254,0 0.33,0.14774 0.33,0.33 v 9.24 c 0,0.18225 -0.147746,0.33 -0.33,0.33 z m 23.099999,-6.6 h -9.57 v -2.97 c 0,-0.18226 0.147746,-0.33 0.33,-0.33 h 2.64 c 0.182254,0 0.33,-0.14775 0.33,-0.33 v -2.97 h 2.97 c 0.182254,0 0.33,0.14774 0.33,0.33 v 2.64 c 0,0.18225 0.147746,0.33 0.33,0.33 h 2.97 v 3.3 z M 105.6,105.27 v -9.240001 c 0,-0.182254 -0.14775,-0.33 -0.33,-0.33 h -9.240001 c -0.182254,0 -0.33,0.147746 -0.33,0.33 V 105.27 c 0,0.18225 0.147746,0.33 0.33,0.33 H 105.27 c 0.18225,0 0.33,-0.14775 0.33,-0.33 z m -39.930001,0.33 h -2.64 c -0.182254,0 -0.33,-0.14775 -0.33,-0.33 v -2.97 h 2.97 c 0.182254,0 0.33,0.14774 0.33,0.33 v 2.64 c 0,0.18225 -0.147746,0.33 -0.33,0.33 z m -9.9,0 h -2.97 v -6.600001 h 6.27 c 0.182254,0 0.33,-0.147746 0.33,-0.33 v -6.27 h 2.97 c 0.182254,0 0.33,-0.147746 0.33,-0.33 v -2.97 h 2.97 c 0.182254,0 0.33,-0.147746 0.33,-0.33 v -5.94 c 0,-0.182254 0.147746,-0.33 0.33,-0.33 h 2.97 v 2.97 c 0,0.182254 0.147746,0.33 0.33,0.33 h 2.64 c 0.182254,0 0.33,-0.147746 0.33,-0.33 v -2.64 c 0,-0.182254 -0.147746,-0.33 -0.33,-0.33 h -2.97 v -2.97 c 0,-0.182254 -0.147746,-0.33 -0.33,-0.33 h -2.64 c -0.182254,0 -0.33,-0.147746 -0.33,-0.33 v -2.97 h 2.97 c 0.182254,0 0.33,-0.147746 0.33,-0.33 v -2.64 c 0,-0.182254 0.147746,-0.33 0.33,-0.33 h 2.64 c 0.182254,0 0.33,-0.147746 0.33,-0.33 v -12.54 c 0,-0.182254 -0.147746,-0.33 -0.33,-0.33 h -9.24 c -0.182254,0 -0.33,-0.147746 -0.33,-0.33 v -2.64 c 0,-0.182254 -0.147746,-0.33 -0.33,-0.33 h -5.94 c -0.182254,0 -0.33,0.147746 -0.33,0.33 v 2.64 c 0,0.182254 -0.147746,0.33 -0.33,0.33 h -2.64 c -0.182254,0 -0.33,0.147746 -0.33,0.33 v 6.27 h -2.97 c -0.182254,0 -0.33,0.147746 -0.33,0.33 v 2.64 c 0,0.182254 -0.147746,0.33 -0.33,0.33 h -2.97 v -6.6 h 2.97 c 0.182254,0 0.33,-0.147746 0.33,-0.33 v -6.27 h 2.97 c 0.182254,0 0.33,-0.147746 0.33,-0.33 v -2.64 c 0,-0.182254 0.147746,-0.33 0.33,-0.33 h 2.64 c 0.182254,0 0.33,-0.147746 0.33,-0.33 v -2.64 c 0,-0.182254 -0.147746,-0.33 -0.33,-0.33 h -5.94 c -0.182254,0 -0.33,0.147746 -0.33,0.33 v 6.27 h -2.97 c -0.182254,0 -0.33,0.147746 -0.33,0.33 v 6.27 h -6.27 c -0.182254,0 -0.33,-0.147746 -0.33,-0.33 v -2.64 c 0,-0.182254 0.147746,-0.33 0.33,-0.33 h 2.64 c 0.182254,0 0.33,-0.147746 0.33,-0.33 v -5.94 c 0,-0.182254 -0.147746,-0.33 -0.33,-0.33 h -2.64 c -0.182254,0 -0.33,-0.147746 -0.33,-0.33 v -2.97 h 2.97 c 0.182254,0 0.33,-0.147746 0.33,-0.33 v -2.64 c 0,-0.182254 0.147746,-0.33 0.33,-0.33 h 2.64 c 0.182254,0 0.33,-0.147746 0.33,-0.33 V 30.03 c 0,-0.182254 0.147746,-0.33 0.33,-0.33 h 2.64 c 0.182254,0 0.33,-0.147746 0.33,-0.33 V 26.4 h 2.97 c 0.182254,0 0.33,-0.147746 0.33,-0.33 v -2.64 c 0,-0.182254 0.147746,-0.33 0.33,-0.33 h 2.64 c 0.182254,0 0.33,-0.147746 0.33,-0.33 v -2.64 c 0,-0.182254 -0.147746,-0.33 -0.33,-0.33 h -5.94 c -0.182254,0 -0.33,0.147746 -0.33,0.33 v 6.27 h -6.27 c -0.182254,0 -0.33,0.147746 -0.33,0.33 v 2.64 c 0,0.182254 -0.147746,0.33 -0.33,0.33 h -2.64 c -0.182254,0 -0.33,-0.147746 -0.33,-0.33 v -9.24 c 0,-0.182254 0.147746,-0.33 0.33,-0.33 h 2.64 c 0.182254,0 0.33,-0.147746 0.33,-0.33 V 16.5 h 2.97 c 0.182254,0 0.33,-0.147746 0.33,-0.33 v -2.64 c 0,-0.182254 0.147746,-0.33 0.33,-0.33 h 2.64 c 0.182254,0 0.33,0.147746 0.33,0.33 v 2.64 c 0,0.182254 0.147746,0.33 0.33,0.33 h 2.64 c 0.182254,0 0.33,-0.147746 0.33,-0.33 v -2.64 c 0,-0.182254 0.147746,-0.33 0.33,-0.33 h 5.94 c 0.182254,0 0.33,0.147746 0.33,0.33 v 9.24 c 0,0.182254 0.147746,0.33 0.33,0.33 h 2.64 c 0.182254,0 0.33,0.147746 0.33,0.33 v 12.539999 c 0,0.182254 0.147746,0.33 0.33,0.33 h 2.64 c 0.182254,0 0.33,-0.147746 0.33,-0.33 V 33.33 c 0,-0.182254 0.147746,-0.33 0.33,-0.33 h 2.97 v 2.969999 c 0,0.182254 0.147746,0.33 0.33,0.33 h 2.97 v 6.27 c 0,0.182254 0.147746,0.33 0.33,0.33 h 9.24 c 0.182254,0 0.33,0.147746 0.33,0.33 v 2.64 c 0,0.182254 -0.147746,0.33 -0.33,0.33 h -5.94 c -0.182254,0 -0.33,0.147746 -0.33,0.33 v 6.27 h -3.3 v -6.27 c 0,-0.182254 -0.147746,-0.33 -0.33,-0.33 h -2.64 c -0.182254,0 -0.33,-0.147746 -0.33,-0.33 v -2.64 c 0,-0.182254 -0.147746,-0.33 -0.33,-0.33 h -9.57 V 26.73 c 0,-0.182254 -0.147746,-0.33 -0.33,-0.33 h -2.64 c -0.182254,0 -0.33,0.147746 -0.33,0.33 v 2.64 c 0,0.182254 -0.147746,0.33 -0.33,0.33 h -2.64 c -0.182254,0 -0.33,0.147746 -0.33,0.33 V 33 h -2.97 c -0.182254,0 -0.33,0.147746 -0.33,0.33 v 5.939999 c 0,0.182254 0.147746,0.33 0.33,0.33 h 2.64 c 0.182254,0 0.33,-0.147746 0.33,-0.33 V 33 h 2.97 c 0.182254,0 0.33,0.147746 0.33,0.33 v 9.239999 c 0,0.182254 0.147746,0.33 0.33,0.33 h 2.97 v 6.27 c 0,0.182254 0.147746,0.33 0.33,0.33 h 9.24 c 0.182254,0 0.33,0.147746 0.33,0.33 v 2.64 c 0,0.182254 0.147746,0.33 0.33,0.33 h 2.97 v 2.97 c 0,0.182254 0.147746,0.33 0.33,0.33 h 2.64 c 0.182254,0 0.33,-0.147746 0.33,-0.33 v -2.97 h 3.3 v 6.27 c 0,0.182254 0.147746,0.33 0.33,0.33 h 2.64 c 0.182254,0 0.33,-0.147746 0.33,-0.33 v -2.64 c 0,-0.182254 0.147746,-0.33 0.33,-0.33 h 2.97 v 9.57 c 0,0.182254 0.147746,0.33 0.33,0.33 h 2.97 v 2.97 c 0,0.182254 0.147746,0.33 0.33,0.33 h 5.94 c 0.182254,0 0.33,-0.147746 0.33,-0.33 v -2.64 c 0,-0.182254 -0.147746,-0.33 -0.33,-0.33 h -6.27 v -2.97 c 0,-0.182254 0.147746,-0.33 0.33,-0.33 h 2.64 c 0.182254,0 0.33,-0.147746 0.33,-0.33 v -6.27 h 3.3 v 6.27 c 0,0.182254 0.147746,0.33 0.33,0.33 h 2.64 c 0.182254,0 0.33,-0.147746 0.33,-0.33 v -2.64 c 0,-0.182254 0.147746,-0.33 0.33,-0.33 H 101.97 c 0.18225,0 0.33,0.147746 0.33,0.33 v 2.64 c 0,0.182254 0.14774,0.33 0.33,0.33 h 2.64 c 0.18225,0 0.33,0.147746 0.33,0.33 v 2.97 h -2.97 c -0.18226,0 -0.33,0.147746 -0.33,0.33 v 2.64 c 0,0.182254 0.14774,0.33 0.33,0.33 h 2.64 c 0.18225,0 0.33,-0.147746 0.33,-0.33 v -2.97 h 6.27 c 0.18225,0 0.33,-0.147746 0.33,-0.33 v -5.94 c 0,-0.182254 -0.14775,-0.33 -0.33,-0.33 h -2.64 c -0.18226,0 -0.33,-0.147746 -0.33,-0.33 v -2.64 c 0,-0.182254 -0.14775,-0.33 -0.33,-0.33 h -5.94 c -0.18226,0 -0.33,-0.147746 -0.33,-0.33 v -2.64 c 0,-0.182254 -0.14775,-0.33 -0.33,-0.33 h -2.970001 v -9.9 H 101.97 c 0.18225,0 0.33,0.147746 0.33,0.33 v 5.94 c 0,0.182254 0.14774,0.33 0.33,0.33 h 2.97 v 2.97 c 0,0.182254 0.14774,0.33 0.33,0.33 h 5.94 c 0.18225,0 0.33,0.147746 0.33,0.33 v 2.64 c 0,0.182254 0.14774,0.33 0.33,0.33 h 5.94 c 0.18225,0 0.33,0.147746 0.33,0.33 v 2.64 c 0,0.182254 -0.14775,0.33 -0.33,0.33 h -2.64 c -0.18226,0 -0.33,0.147746 -0.33,0.33 v 5.94 c 0,0.182254 0.14774,0.33 0.33,0.33 h 5.94 c 0.18225,0 0.33,0.147746 0.33,0.33 v 5.94 c 0,0.182254 -0.14775,0.33 -0.33,0.33 h -2.97 v -2.97 c 0,-0.182254 -0.14775,-0.33 -0.33,-0.33 h -2.64 c -0.18226,0 -0.33,0.147746 -0.33,0.33 v 2.97 h -2.97 c -0.18226,0 -0.33,0.147746 -0.33,0.33 v 6.27 h -2.97 c -0.18226,0 -0.33,-0.147746 -0.33,-0.33 v -5.94 c 0,-0.182254 -0.14775,-0.33 -0.33,-0.33 h -5.94 c -0.18226,0 -0.33,0.147746 -0.33,0.33 v 2.64 c 0,0.182254 0.14774,0.33 0.33,0.33 h 2.64 c 0.18225,0 0.33,0.147746 0.33,0.33 v 5.94 c 0,0.182254 -0.14775,0.33 -0.33,0.33 h -2.97 v -2.97 c 0,-0.182254 -0.14775,-0.33 -0.33,-0.33 h -2.640001 c -0.182254,0 -0.33,0.147746 -0.33,0.33 v 2.97 h -2.97 c -0.182254,0 -0.33,-0.147746 -0.33,-0.33 v -2.64 c 0,-0.182254 -0.147746,-0.33 -0.33,-0.33 h -2.97 v -6.27 c 0,-0.182254 -0.147746,-0.33 -0.33,-0.33 h -2.64 c -0.182254,0 -0.33,0.147746 -0.33,0.33 v 2.64 c 0,0.182254 -0.147746,0.33 -0.33,0.33 h -2.64 c -0.182254,0 -0.33,-0.147746 -0.33,-0.33 v -5.94 c 0,-0.182254 -0.147746,-0.33 -0.33,-0.33 h -2.64 c -0.182254,0 -0.33,0.147746 -0.33,0.33 v 2.64 c 0,0.182254 -0.147746,0.33 -0.33,0.33 h -2.64 c -0.182254,0 -0.33,-0.147746 -0.33,-0.33 v -2.64 c 0,-0.182254 -0.147746,-0.33 -0.33,-0.33 h -2.64 c -0.182254,0 -0.33,0.147746 -0.33,0.33 v 5.94 c 0,0.182254 -0.147746,0.33 -0.33,0.33 h -2.64 c -0.182254,0 -0.33,0.147746 -0.33,0.33 v 2.64 c 0,0.182254 0.147746,0.33 0.33,0.33 h 12.54 c 0.182254,0 0.33,0.147746 0.33,0.33 v 2.64 c 0,0.182254 -0.147746,0.33 -0.33,0.33 h -2.64 c -0.182254,0 -0.33,0.147746 -0.33,0.33 v 2.97 h -6.27 c -0.182254,0 -0.33,0.147746 -0.33,0.33 v 2.64 c 0,0.182254 0.147746,0.33 0.33,0.33 h 6.27 v 2.97 c 0,0.182254 -0.147746,0.33 -0.33,0.33 h -9.57 v -2.97 c 0,-0.182254 -0.147746,-0.33 -0.33,-0.33 h -2.64 c -0.182254,0 -0.33,0.147746 -0.33,0.33 v 2.64 c 0,0.182254 0.147746,0.33 0.33,0.33 h 2.97 v 6.6 h -9.57 c -0.182254,0 -0.33,0.147746 -0.33,0.33 V 102.3 h -6.27 c -0.182254,0 -0.33,0.14774 -0.33,0.33 v 2.64 c 0,0.18225 -0.147746,0.33 -0.33,0.33 z M 101.97,102.3 h -2.640001 c -0.182254,0 -0.33,-0.14775 -0.33,-0.33 v -2.640001 c 0,-0.182254 0.147746,-0.33 0.33,-0.33 H 101.97 c 0.18225,0 0.33,0.147746 0.33,0.33 V 101.97 c 0,0.18225 -0.14775,0.33 -0.33,0.33 z m -56.100001,0 h -2.64 c -0.182254,0 -0.33,-0.14775 -0.33,-0.33 v -2.970001 h 2.97 c 0.182254,0 0.33,0.147746 0.33,0.33 V 102.3 Z m 6.6,-3.300001 h -2.64 c -0.182254,0 -0.33,-0.147746 -0.33,-0.33 v -2.64 c 0,-0.182254 -0.147746,-0.33 -0.33,-0.33 h -2.64 c -0.182254,0 -0.33,-0.147746 -0.33,-0.33 v -2.64 c 0,-0.182254 0.147746,-0.33 0.33,-0.33 h 2.64 c 0.182254,0 0.33,-0.147746 0.33,-0.33 v -2.64 c 0,-0.182254 0.147746,-0.33 0.33,-0.33 h 9.57 v 3.3 h -6.27 c -0.182254,0 -0.33,0.147746 -0.33,0.33 v 6.27 z m -9.9,0 h -2.64 c -0.182254,0 -0.33,-0.147746 -0.33,-0.33 v -5.94 c 0,-0.182254 0.147746,-0.33 0.33,-0.33 h 2.64 c 0.182254,0 0.33,0.147746 0.33,0.33 v 6.27 z m 79.200001,-3.3 h -2.64 c -0.18226,0 -0.33,-0.147746 -0.33,-0.33 v -2.97 h 2.97 c 0.18225,0 0.33,0.147746 0.33,0.33 v 2.64 c 0,0.182254 -0.14775,0.33 -0.33,0.33 z m -85.800001,0 H 30.03 c -0.182254,0 -0.33,-0.147746 -0.33,-0.33 v -5.94 c 0,-0.182254 0.147746,-0.33 0.33,-0.33 H 33 v 2.97 c 0,0.182254 0.147746,0.33 0.33,0.33 h 2.639999 c 0.182254,0 0.33,0.147746 0.33,0.33 v 2.64 c 0,0.182254 -0.147746,0.33 -0.33,0.33 z m -9.899999,0 h -2.64 c -0.182254,0 -0.33,-0.147746 -0.33,-0.33 v -6.27 h 2.97 c 0.182254,0 0.33,0.147746 0.33,0.33 v 5.94 c 0,0.182254 -0.147746,0.33 -0.33,0.33 z m -9.9,0 h -2.64 c -0.182254,0 -0.33,-0.147746 -0.33,-0.33 v -2.64 c 0,-0.182254 0.147746,-0.33 0.33,-0.33 h 2.97 v 2.97 c 0,0.182254 -0.147746,0.33 -0.33,0.33 z m 102.3,-3.3 h -2.64 c -0.18226,0 -0.33,-0.147746 -0.33,-0.33 v -2.64 c 0,-0.182254 -0.14775,-0.33 -0.33,-0.33 h -2.97 v -3.3 h 2.97 c 0.18225,0 0.33,-0.147746 0.33,-0.33 v -2.97 h 6.27 c 0.18225,0 0.33,0.147746 0.33,0.33 v 5.94 c 0,0.182254 -0.14775,0.33 -0.33,0.33 h -2.64 c -0.18226,0 -0.33,0.147746 -0.33,0.33 v 2.97 z m -6.6,0 h -2.97 v -2.97 c 0,-0.182254 0.14774,-0.33 0.33,-0.33 h 2.97 v 2.97 c 0,0.182254 -0.14775,0.33 -0.33,0.33 z m -92.4,0 H 16.5 v -2.97 c 0,-0.182254 0.147746,-0.33 0.33,-0.33 h 2.97 v 2.97 c 0,0.182254 -0.147746,0.33 -0.33,0.33 z m 79.199999,-3.3 h -16.17 v -3.3 h 6.27 c 0.182254,0 0.33,-0.147746 0.33,-0.33 v -5.94 c 0,-0.182254 0.147746,-0.33 0.33,-0.33 h 2.97 v 6.27 c 0,0.182254 0.147746,0.33 0.33,0.33 h 6.27 v 3.3 z m -36.3,0 h -2.97 v -6.27 c 0,-0.182254 -0.147746,-0.33 -0.33,-0.33 h -2.64 c -0.182254,0 -0.33,-0.147746 -0.33,-0.33 v -2.64 c 0,-0.182254 0.147746,-0.33 0.33,-0.33 h 5.94 c 0.182254,0 0.33,0.147746 0.33,0.33 v 9.57 z m -23.1,0 H 33 v -3.3 h 6.269999 c 0.182254,0 0.33,0.147746 0.33,0.33 v 2.64 c 0,0.182254 -0.147746,0.33 -0.33,0.33 z m -16.499999,0 H 19.8 v -2.97 c 0,-0.182254 0.147746,-0.33 0.33,-0.33 h 2.64 c 0.182254,0 0.33,0.147746 0.33,0.33 v 2.97 z m 89.1,-3.3 h -2.64 c -0.18226,0 -0.33,-0.147746 -0.33,-0.33 v -2.64 c 0,-0.182254 0.14774,-0.33 0.33,-0.33 h 2.97 v 3.3 z m -9.9,0 h -2.970001 v -3.3 H 102.3 v 2.97 c 0,0.182254 -0.14775,0.33 -0.33,0.33 z m -52.800001,0 h -2.64 c -0.182254,0 -0.33,-0.147746 -0.33,-0.33 v -2.64 c 0,-0.182254 0.147746,-0.33 0.33,-0.33 h 2.64 c 0.182254,0 0.33,0.147746 0.33,0.33 v 2.64 c 0,0.182254 -0.147746,0.33 -0.33,0.33 z m -16.499999,0 h -2.64 c -0.182254,0 -0.33,-0.147746 -0.33,-0.33 v -6.27 h 6.269999 c 0.182254,0 0.33,0.147746 0.33,0.33 v 2.64 c 0,0.182254 -0.147746,0.33 -0.33,0.33 H 33.33 c -0.182254,0 -0.33,0.147746 -0.33,0.33 v 2.97 z m -16.5,0 h -2.64 c -0.182254,0 -0.33,-0.147746 -0.33,-0.33 v -2.64 c 0,-0.182254 0.147746,-0.33 0.33,-0.33 h 2.97 v 2.97 c 0,0.182254 -0.147746,0.33 -0.33,0.33 z m 99,-3.3 h -2.97 v -3.3 h 2.97 c 0.18225,0 0.33,0.147746 0.33,0.33 v 2.97 z m -89.1,0 h -2.64 c -0.182254,0 -0.33,-0.147746 -0.33,-0.33 v -2.64 c 0,-0.182254 -0.147746,-0.33 -0.33,-0.33 h -2.64 c -0.182254,0 -0.33,0.147746 -0.33,0.33 v 2.64 c 0,0.182254 -0.147746,0.33 -0.33,0.33 H 16.5 v -2.97 c 0,-0.182254 -0.147746,-0.33 -0.33,-0.33 h -2.64 c -0.182254,0 -0.33,-0.147746 -0.33,-0.33 v -2.64 c 0,-0.182254 0.147746,-0.33 0.33,-0.33 h 2.64 c 0.182254,0 0.33,-0.147746 0.33,-0.33 v -2.64 c 0,-0.182254 0.147746,-0.33 0.33,-0.33 h 2.64 c 0.182254,0 0.33,-0.147746 0.33,-0.33 v -2.64 c 0,-0.182254 0.147746,-0.33 0.33,-0.33 h 2.97 v 2.97 c 0,0.182254 0.147746,0.33 0.33,0.33 h 2.97 v 2.97 c 0,0.182254 0.147746,0.33 0.33,0.33 h 2.64 c 0.182254,0 0.33,0.147746 0.33,0.33 v 2.97 h -2.97 c -0.182254,0 -0.33,0.147746 -0.33,0.33 v 2.64 c 0,0.182254 -0.147746,0.33 -0.33,0.33 z m 95.7,-3.3 h -2.64 c -0.18226,0 -0.33,-0.147746 -0.33,-0.33 v -2.97 h 2.97 c 0.18225,0 0.33,0.147746 0.33,0.33 v 2.64 c 0,0.182254 -0.14775,0.33 -0.33,0.33 z m -69.300001,0 h -9.24 c -0.182254,0 -0.33,-0.147746 -0.33,-0.33 v -5.94 c 0,-0.182254 -0.147746,-0.33 -0.33,-0.33 h -2.64 c -0.182254,0 -0.33,0.147746 -0.33,0.33 v 2.64 c 0,0.182254 -0.147746,0.33 -0.33,0.33 H 33.33 c -0.182254,0 -0.33,-0.147746 -0.33,-0.33 v -2.97 h 2.969999 c 0.182254,0 0.33,-0.147746 0.33,-0.33 v -2.64 c 0,-0.182254 -0.147746,-0.33 -0.33,-0.33 H 33.33 c -0.182254,0 -0.33,0.147746 -0.33,0.33 v 2.97 h -6.6 v -3.3 h 2.97 c 0.182254,0 0.33,-0.147746 0.33,-0.33 v -2.64 c 0,-0.182254 0.147746,-0.33 0.33,-0.33 h 9.239999 c 0.182254,0 0.33,0.147746 0.33,0.33 v 2.64 c 0,0.182254 0.147746,0.33 0.33,0.33 h 6.27 v 6.27 c 0,0.182254 0.147746,0.33 0.33,0.33 h 5.94 c 0.182254,0 0.33,0.147746 0.33,0.33 v 2.64 c 0,0.182254 -0.147746,0.33 -0.33,0.33 z m 66.000001,-3.3 h -2.64 c -0.18226,0 -0.33,-0.147746 -0.33,-0.33 v -2.97 h 3.3 v 3.3 z m -52.800001,0 h -9.24 c -0.182254,0 -0.33,-0.147746 -0.33,-0.33 v -2.64 c 0,-0.182254 0.147746,-0.33 0.33,-0.33 h 2.64 c 0.182254,0 0.33,-0.147746 0.33,-0.33 v -2.64 c 0,-0.182254 0.147746,-0.33 0.33,-0.33 h 5.94 c 0.182254,0 0.33,0.147746 0.33,0.33 v 6.27 z m -9.9,-6.6 h -2.64 c -0.182254,0 -0.33,-0.147746 -0.33,-0.33 v -2.97 h 2.97 c 0.182254,0 0.33,0.147746 0.33,0.33 v 2.64 c 0,0.182254 -0.147746,0.33 -0.33,0.33 z m -29.699999,0 H 23.1 v -9.9 h 2.97 c 0.182254,0 0.33,-0.147746 0.33,-0.33 v -2.64 c 0,-0.182254 0.147746,-0.33 0.33,-0.33 H 33 v 2.97 c 0,0.182254 0.147746,0.33 0.33,0.33 h 2.639999 c 0.182254,0 0.33,0.147746 0.33,0.33 v 2.64 c 0,0.182254 -0.147746,0.33 -0.33,0.33 H 26.73 c -0.182254,0 -0.33,0.147746 -0.33,0.33 v 6.27 z m -9.9,0 h -2.64 c -0.182254,0 -0.33,-0.147746 -0.33,-0.33 v -2.64 c 0,-0.182254 0.147746,-0.33 0.33,-0.33 h 2.97 v 2.97 c 0,0.182254 -0.147746,0.33 -0.33,0.33 z m 66.329999,-3.63 v -2.64 c 0,-0.182254 -0.147746,-0.33 -0.33,-0.33 h -2.64 c -0.182254,0 -0.33,0.147746 -0.33,0.33 v 2.64 c 0,0.182254 0.147746,0.33 0.33,0.33 h 2.64 c 0.182254,0 0.33,-0.147746 0.33,-0.33 z m -13.53,0.33 h -9.24 c -0.182254,0 -0.33,-0.147746 -0.33,-0.33 v -2.64 c 0,-0.182254 0.147746,-0.33 0.33,-0.33 h 9.24 c 0.182254,0 0.33,0.147746 0.33,0.33 v 2.64 c 0,0.182254 -0.147746,0.33 -0.33,0.33 z m -49.499999,0 H 16.5 v -6.27 c 0,-0.182254 0.147746,-0.33 0.33,-0.33 h 2.97 v 6.27 c 0,0.182254 -0.147746,0.33 -0.33,0.33 z m 3.3,-6.6 H 19.8 v -6.27 c 0,-0.182254 0.147746,-0.33 0.33,-0.33 h 2.97 v 6.6 z m 75.899999,-3.3 h -2.97 v -2.97 c 0,-0.182254 0.147746,-0.33 0.33,-0.33 h 2.97 v 2.97 c 0,0.182254 -0.147746,0.33 -0.33,0.33 z m -6.6,0 h -6.27 v -2.97 c 0,-0.182254 0.147746,-0.33 0.33,-0.33 h 5.94 c 0.182254,0 0.33,0.147746 0.33,0.33 v 2.97 z m -56.1,0 H 33 v -2.97 c 0,-0.182254 0.147746,-0.33 0.33,-0.33 h 2.639999 c 0.182254,0 0.33,0.147746 0.33,0.33 v 2.64 c 0,0.182254 -0.147746,0.33 -0.33,0.33 z m -19.799999,0 h -2.64 c -0.182254,0 -0.33,-0.147746 -0.33,-0.33 v -2.64 c 0,-0.182254 0.147746,-0.33 0.33,-0.33 h 2.64 c 0.182254,0 0.33,0.147746 0.33,0.33 v 2.64 c 0,0.182254 -0.147746,0.33 -0.33,0.33 z m 102.3,-3.3 h -2.64 c -0.18226,0 -0.33,-0.147746 -0.33,-0.33 v -2.64 c 0,-0.182254 -0.14775,-0.33 -0.33,-0.33 h -2.64 c -0.18226,0 -0.33,-0.147746 -0.33,-0.33 v -5.94 c 0,-0.182254 -0.14775,-0.33 -0.33,-0.33 h -5.94 c -0.18226,0 -0.33,-0.147746 -0.33,-0.33 v -2.64 c 0,-0.182254 0.14774,-0.33 0.33,-0.33 h 9.24 c 0.18225,0 0.33,0.147746 0.33,0.33 v 2.64 c 0,0.182254 0.14774,0.33 0.33,0.33 h 2.64 c 0.18225,0 0.33,-0.147746 0.33,-0.33 v -2.64 c 0,-0.182254 0.14774,-0.33 0.33,-0.33 h 2.64 c 0.18225,0 0.33,0.147746 0.33,0.33 v 9.24 c 0,0.182254 -0.14775,0.33 -0.33,0.33 h -2.64 c -0.18226,0 -0.33,0.147746 -0.33,0.33 v 2.64 c 0,0.182254 -0.14775,0.33 -0.33,0.33 z m -36.300001,0 h -2.97 v -2.97 c 0,-0.182254 0.147746,-0.33 0.33,-0.33 h 2.64 c 0.182254,0 0.33,0.147746 0.33,0.33 v 2.64 c 0,0.182254 -0.147746,0.33 -0.33,0.33 z m -56.099999,0 H 23.1 v -3.3 h 2.97 c 0.182254,0 0.33,0.147746 0.33,0.33 v 2.64 c 0,0.182254 -0.147746,0.33 -0.33,0.33 z m 82.5,-3.3 h -2.97 v -2.97 c 0,-0.182254 0.14774,-0.33 0.33,-0.33 h 2.64 c 0.18225,0 0.33,0.147746 0.33,0.33 v 2.64 c 0,0.182254 -0.14775,0.33 -0.33,0.33 z m -13.200001,0 h -5.94 c -0.182254,0 -0.33,-0.147746 -0.33,-0.33 v -9.24 c 0,-0.182254 -0.147746,-0.33 -0.33,-0.33 h -2.64 c -0.182254,0 -0.33,-0.147746 -0.33,-0.33 V 33 h 2.97 c 0.182254,0 0.33,0.147746 0.33,0.33 v 2.639999 c 0,0.182254 0.147746,0.33 0.33,0.33 h 2.97 v 9.57 c 0,0.182254 0.147746,0.33 0.33,0.33 h 2.64 c 0.182254,0 0.33,0.147746 0.33,0.33 v 2.64 c 0,0.182254 -0.147746,0.33 -0.33,0.33 z m -56.1,0 H 30.03 c -0.182254,0 -0.33,-0.147746 -0.33,-0.33 v -2.97 h 6.269999 c 0.182254,0 0.33,-0.147746 0.33,-0.33 v -2.97 h 3.3 v 6.6 z m -16.499999,0 h -2.64 c -0.182254,0 -0.33,-0.147746 -0.33,-0.33 v -2.64 c 0,-0.182254 -0.147746,-0.33 -0.33,-0.33 h -2.64 c -0.182254,0 -0.33,0.147746 -0.33,0.33 v 2.64 c 0,0.182254 -0.147746,0.33 -0.33,0.33 h -2.64 c -0.182254,0 -0.33,-0.147746 -0.33,-0.33 v -9.24 c 0,-0.182254 0.147746,-0.33 0.33,-0.33 h 12.54 c 0.182254,0 0.33,0.147746 0.33,0.33 v 2.64 c 0,0.182254 0.147746,0.33 0.33,0.33 h 2.64 c 0.182254,0 0.33,0.147746 0.33,0.33 v 2.97 h -6.27 c -0.182254,0 -0.33,0.147746 -0.33,0.33 v 2.97 z m 30.029999,-3.63 v -2.64 c 0,-0.182254 -0.147746,-0.33 -0.33,-0.33 h -2.64 c -0.182254,0 -0.33,0.147746 -0.33,0.33 v 2.64 c 0,0.182254 0.147746,0.33 0.33,0.33 h 2.64 c 0.182254,0 0.33,-0.147746 0.33,-0.33 z m 45.87,-2.97 h -2.64 c -0.182254,0 -0.33,-0.147746 -0.33,-0.33 v -2.64 c 0,-0.182254 0.147746,-0.33 0.33,-0.33 h 2.64 c 0.182254,0 0.33,0.147746 0.33,0.33 v 2.97 z m -56.1,0 h -2.97 v -2.97 c 0,-0.182254 0.147746,-0.33 0.33,-0.33 h 2.64 c 0.182254,0 0.33,0.147746 0.33,0.33 v 2.64 c 0,0.182254 -0.147746,0.33 -0.33,0.33 z m -6.6,0 H 33.33 c -0.182254,0 -0.33,-0.147746 -0.33,-0.33 v -2.64 c 0,-0.182254 0.147746,-0.33 0.33,-0.33 h 2.639999 c 0.182254,0 0.33,0.147746 0.33,0.33 v 2.97 z m 85.800001,-6.6 H 99.329999 c -0.182254,0 -0.33,-0.147746 -0.33,-0.33 V 13.53 c 0,-0.182254 0.147746,-0.33 0.33,-0.33 H 121.77 c 0.18225,0 0.33,0.147746 0.33,0.33 v 22.439999 c 0,0.182254 -0.14775,0.33 -0.33,0.33 z m -26.400001,0 h -2.97 V 33.33 c 0,-0.182254 0.147746,-0.33 0.33,-0.33 h 2.64 c 0.182254,0 0.33,0.147746 0.33,0.33 v 2.639999 c 0,0.182254 -0.147746,0.33 -0.33,0.33 z m -13.2,0 h -2.64 c -0.182254,0 -0.33,-0.147746 -0.33,-0.33 V 33 h 3.3 v 2.969999 c 0,0.182254 -0.147746,0.33 -0.33,0.33 z m -6.6,0 h -2.97 V 33.33 c 0,-0.182254 -0.147746,-0.33 -0.33,-0.33 h -2.97 v -3.3 h 6.27 c 0.182254,0 0.33,-0.147746 0.33,-0.33 v -2.64 c 0,-0.182254 0.147746,-0.33 0.33,-0.33 h 2.64 c 0.182254,0 0.33,0.147746 0.33,0.33 V 33 h -2.97 c -0.182254,0 -0.33,0.147746 -0.33,0.33 v 2.639999 c 0,0.182254 -0.147746,0.33 -0.33,0.33 z m -33,0 h -2.64 c -0.182254,0 -0.33,-0.147746 -0.33,-0.33 V 33.33 c 0,-0.182254 0.147746,-0.33 0.33,-0.33 h 2.64 c 0.182254,0 0.33,0.147746 0.33,0.33 v 2.639999 c 0,0.182254 -0.147746,0.33 -0.33,0.33 z m -6.6,0 H 13.53 c -0.182254,0 -0.33,-0.147746 -0.33,-0.33 V 13.53 c 0,-0.182254 0.147746,-0.33 0.33,-0.33 h 22.439999 c 0.182254,0 0.33,0.147746 0.33,0.33 v 22.439999 c 0,0.182254 -0.147746,0.33 -0.33,0.33 z M 118.8,32.67 V 16.83 c 0,-0.182254 -0.14775,-0.33 -0.33,-0.33 h -15.84 c -0.18226,0 -0.33,0.147746 -0.33,0.33 v 15.84 c 0,0.182253 0.14774,0.33 0.33,0.33 h 15.84 c 0.18225,0 0.33,-0.147747 0.33,-0.33 z M 85.469999,33 h -2.97 v -6.27 c 0,-0.182254 0.147746,-0.33 0.33,-0.33 h 2.64 c 0.182254,0 0.33,0.147746 0.33,0.33 V 33 Z M 33,32.67 V 16.83 C 33,16.647746 32.852253,16.5 32.67,16.5 H 16.83 c -0.182254,0 -0.33,0.147746 -0.33,0.33 v 15.84 c 0,0.182253 0.147746,0.33 0.33,0.33 H 32.67 C 32.852253,33 33,32.852253 33,32.67 Z m 82.17,-2.97 h -9.24 c -0.18226,0 -0.33,-0.147746 -0.33,-0.33 v -9.24 c 0,-0.182254 0.14774,-0.33 0.33,-0.33 h 9.24 c 0.18225,0 0.33,0.147746 0.33,0.33 v 9.24 c 0,0.182254 -0.14775,0.33 -0.33,0.33 z m -19.800001,0 h -2.64 c -0.182254,0 -0.33,-0.147746 -0.33,-0.33 v -2.64 c 0,-0.182254 0.147746,-0.33 0.33,-0.33 h 2.64 c 0.182254,0 0.33,0.147746 0.33,0.33 v 2.64 c 0,0.182254 -0.147746,0.33 -0.33,0.33 z m -26.4,0 h -2.64 c -0.182254,0 -0.33,-0.147746 -0.33,-0.33 v -2.64 c 0,-0.182254 0.147746,-0.33 0.33,-0.33 h 2.97 v 3.3 z M 29.37,29.7 h -9.24 c -0.182254,0 -0.33,-0.147746 -0.33,-0.33 v -9.24 c 0,-0.182254 0.147746,-0.33 0.33,-0.33 h 9.24 c 0.182254,0 0.33,0.147746 0.33,0.33 v 9.24 c 0,0.182254 -0.147746,0.33 -0.33,0.33 z m 42.899999,-3.3 h -2.97 v -3.3 h 3.3 v 2.97 c 0,0.182254 -0.147746,0.33 -0.33,0.33 z m 23.1,-3.3 h -2.64 c -0.182254,0 -0.33,-0.147746 -0.33,-0.33 v -2.64 c 0,-0.182254 -0.147746,-0.33 -0.33,-0.33 h -2.97 v -6.27 c 0,-0.182254 0.147746,-0.33 0.33,-0.33 h 2.64 c 0.182254,0 0.33,0.147746 0.33,0.33 v 2.64 c 0,0.182254 0.147746,0.33 0.33,0.33 h 2.64 c 0.182254,0 0.33,0.147746 0.33,0.33 v 5.94 c 0,0.182254 -0.147746,0.33 -0.33,0.33 z m -6.6,0 h -2.64 c -0.182254,0 -0.33,-0.147746 -0.33,-0.33 V 19.8 h 3.3 v 2.97 c 0,0.182254 -0.147746,0.33 -0.33,0.33 z m -13.2,0 h -2.97 v -2.97 c 0,-0.182254 -0.147746,-0.33 -0.33,-0.33 h -2.64 c -0.182254,0 -0.33,0.147746 -0.33,0.33 v 2.97 h -2.97 c -0.182254,0 -0.33,-0.147746 -0.33,-0.33 v -9.24 c 0,-0.182254 0.147746,-0.33 0.33,-0.33 h 2.64 c 0.182254,0 0.33,0.147746 0.33,0.33 v 2.64 c 0,0.182254 0.147746,0.33 0.33,0.33 h 2.64 c 0.182254,0 0.33,-0.147746 0.33,-0.33 v -2.64 c 0,-0.182254 0.147746,-0.33 0.33,-0.33 h 12.54 c 0.182254,0 0.33,0.147746 0.33,0.33 v 6.27 h -6.27 c -0.182254,0 -0.33,-0.147746 -0.33,-0.33 v -2.64 c 0,-0.182254 -0.147746,-0.33 -0.33,-0.33 h -2.64 c -0.182254,0 -0.33,0.147746 -0.33,0.33 v 5.94 c 0,0.182254 -0.147746,0.33 -0.33,0.33 z m -33,-6.6 h -2.64 c -0.182254,0 -0.33,-0.147746 -0.33,-0.33 v -2.64 c 0,-0.182254 0.147746,-0.33 0.33,-0.33 h 2.64 c 0.182254,0 0.33,0.147746 0.33,0.33 v 2.97 z"
           id="path1412" />
      </g>
    </g>
  </g>
</svg>
